<svg width="1024" height="1024" xmlns="http://www.w3.org/2000/svg" class="icon">

 <g>
  <title>background</title>
  <rect fill="none" id="canvas_background" height="402" width="582" y="-1" x="-1"/>
 </g>
 <g>
  <title>Layer 1</title>
  <path transform="rotate(-180 512,511.9999389648437) " id="svg_1" fill="#BDBDBD" d="m747.568753,915.214053c0,3.4 -0.4,6.9 -1.2,10.3c-5.7,24.1 -29.8,39 -53.9,33.3c-16,-3.8 -16,-3.8 -403.9,-416.9c-16.2,-17.3 -16.2,-44.2 0.1,-61.4l380.1,-402.5c17,-18 45.3,-18.8 63.3,-1.8s18.8,45.4 1.8,63.3l-351,371.8c140.9,150 330.7,351.6 349.4,370c9.6,8.4 15.3,20.8 15.3,33.9z"/>
 </g>
</svg>