<?xml version="1.0" standalone="no"?><!DOCTYPE svg PUBLIC "-//W3C//DTD SVG 1.1//EN" "http://www.w3.org/Graphics/SVG/1.1/DTD/svg11.dtd"><svg t="1739105993269" class="icon" viewBox="0 0 1024 1024" version="1.1" xmlns="http://www.w3.org/2000/svg" p-id="38102" xmlns:xlink="http://www.w3.org/1999/xlink" width="200" height="200"><path d="M0 819.2h102.4v204.8H0zM921.6 819.2h102.4v204.8h-102.4z" p-id="38103" fill="#1296db"></path><path d="M51.2 870.4h921.6v102.4H51.2zM998.4 148.48L880.64 30.72c-35.84-35.84-97.28-35.84-133.12 0l-501.76 501.76c-5.12 10.24-10.24 15.36-15.36 30.72l-30.72 204.8c0 15.36 5.12 30.72 15.36 40.96 10.24 10.24 20.48 15.36 35.84 15.36l220.16-30.72c10.24 0 20.48-5.12 30.72-15.36l501.76-501.76c10.24-15.36 20.48-35.84 20.48-61.44s-10.24-51.2-25.6-66.56z m-225.28 215.04l-337.92 337.92L307.2 716.8l15.36-133.12 337.92-337.92 112.64 117.76zM921.6 215.04l-76.8 76.8-112.64-112.64L808.96 102.4 921.6 215.04z" p-id="38104" fill="#3D97FC"></path></svg>