<?xml version="1.0" standalone="no"?><!DOCTYPE svg PUBLIC "-//W3C//DTD SVG 1.1//EN" "http://www.w3.org/Graphics/SVG/1.1/DTD/svg11.dtd"><svg t="1739098263917" class="icon" viewBox="0 0 1024 1024" version="1.1" xmlns="http://www.w3.org/2000/svg" p-id="1472" xmlns:xlink="http://www.w3.org/1999/xlink" width="200" height="200"><path d="M192 179.2c-44.8 0-76.8 32-76.8 76.8v576c0 44.8 38.4 76.8 76.8 76.8h576c44.8 0 76.8-38.4 76.8-76.8V576c0-25.6 19.2-51.2 51.2-51.2s51.2 19.2 51.2 51.2v256c0 96-76.8 179.2-179.2 179.2H192C96 1011.2 12.8 934.4 12.8 832V256C12.8 160 89.6 76.8 192 76.8h256c25.6 0 51.2 19.2 51.2 51.2s-25.6 51.2-51.2 51.2H192z" fill="#2c2c2c" p-id="1473"></path><path d="M1004.8 211.2L825.6 32c-19.2-19.2-51.2-19.2-70.4 0L339.2 448c-6.4 6.4-12.8 12.8-12.8 25.6l-44.8 224c0 12.8 0 32 12.8 44.8 12.8 12.8 25.6 19.2 44.8 12.8l224-44.8c12.8-6.4 19.2-6.4 25.6-12.8l416-416c6.4-6.4 12.8-19.2 12.8-32s-6.4-32-12.8-38.4zM531.2 614.4l-140.8 25.6 25.6-140.8L787.2 128l115.2 115.2-371.2 371.2z" fill="#2c2c2c" p-id="1474"></path></svg>