<?xml version="1.0" standalone="no"?><!DOCTYPE svg PUBLIC "-//W3C//DTD SVG 1.1//EN" "http://www.w3.org/Graphics/SVG/1.1/DTD/svg11.dtd"><svg t="1739107580826" class="icon" viewBox="0 0 1024 1024" version="1.1" xmlns="http://www.w3.org/2000/svg" p-id="77178" xmlns:xlink="http://www.w3.org/1999/xlink" width="200" height="200"><path d="M950.744505 421.422681l-358.988281 363.820268a223.408383 223.408383 0 0 1-319.081744 0l-199.418985-202.26133a57.813315 57.813315 0 0 1 0-80.893163L551.906536 16.672632a55.823672 55.823672 0 0 1 79.585683 0l319.081745 323.572651a57.813315 57.813315 0 0 1 0.170541 81.177398zM352.430704 380.947676L192.918255 542.734001l159.512449 161.786326a111.704192 111.704192 0 0 0 159.569296 0l79.585684-80.893163zM284.612332 910.306166h625.316086a56.846917 56.846917 0 0 1 0 113.693834H284.612332a56.846917 56.846917 0 0 1 0-113.693834z" fill="#3D97FC" p-id="77179"></path></svg>