<?xml version="1.0" standalone="no"?><!DOCTYPE svg PUBLIC "-//W3C//DTD SVG 1.1//EN" "http://www.w3.org/Graphics/SVG/1.1/DTD/svg11.dtd"><svg t="1739098756867" class="icon" viewBox="0 0 1024 1024" version="1.1" xmlns="http://www.w3.org/2000/svg" p-id="7992" xmlns:xlink="http://www.w3.org/1999/xlink" width="200" height="200"><path d="M892.416 244.736H125.696c-16.896 0-30.72-13.824-30.72-30.72s13.824-30.72 30.72-30.72h766.72c16.896 0 30.72 13.824 30.72 30.72s-13.568 30.72-30.72 30.72zM566.272 449.536H138.496c-16.896 0-30.72-13.824-30.72-30.72s13.824-30.72 30.72-30.72h427.776c16.896 0 30.72 13.824 30.72 30.72s-13.824 30.72-30.72 30.72zM566.272 654.336H138.496c-16.896 0-30.72-13.824-30.72-30.72s13.824-30.72 30.72-30.72h427.776c16.896 0 30.72 13.824 30.72 30.72s-13.824 30.72-30.72 30.72zM892.416 859.136H125.696c-16.896 0-30.72-13.824-30.72-30.72s13.824-30.72 30.72-30.72h766.72c16.896 0 30.72 13.824 30.72 30.72s-13.568 30.72-30.72 30.72zM694.784 685.824c-4.864 0-9.728-1.28-14.336-3.584-10.24-5.376-16.384-15.872-16.384-27.136V383.488c0-11.52 6.4-22.016 16.64-27.392 10.24-5.376 22.528-4.352 31.744 2.304l194.304 137.472c8.192 5.888 13.056 15.104 13.056 25.344 0 9.984-5.12 19.456-13.312 25.088l-194.304 134.144c-5.376 3.584-11.264 5.376-17.408 5.376z m30.72-242.944v153.6l109.824-76.032-109.824-77.568z" fill="#2c2c2c" p-id="7993"></path></svg>