<svg width="1024" height="1024" xmlns="http://www.w3.org/2000/svg" class="icon">

 <g>
  <title>background</title>
  <rect fill="none" id="canvas_background" height="402" width="582" y="-1" x="-1"/>
 </g>
 <g>
  <title>Layer 1</title>
  <path stroke="null" id="svg_1" fill="#73DCE6" d="m868.318816,577.751754l-79.78666,-24.856813l27.73333,-18.642612a36.26667,42.256592 0 1 0 -35.2,-74.57045l-91.94667,61.893473l-64,-20.879726a24.53333,28.585335 0 0 1 -10.88,-48.222228l48.64,-57.17067l103.25334,0a37.33333,43.499425 0 0 0 37.54666,-37.782365a36.26667,42.256592 0 0 0 -35.84,-46.482243l-33.06666,0l56.10666,-66.119136a37.12,43.250861 0 0 0 2.77334,-59.65636a36.05333,42.008016 0 0 0 -52.48,-1.988549l-59.52,69.350518l0,-37.285225a37.33333,43.499425 0 0 0 -32.42667,-43.747989a36.26667,42.256592 0 0 0 -39.89333,41.759452l0,124.284075l-48.21334,55.927837a24.74667,28.833911 0 0 1 -40.74666,-12.676976l-18.13334,-78.050396l51.41334,-103.901501a37.54667,43.748001 0 0 0 -10.66667,-58.413515a36.48,42.505156 0 0 0 -51.2,14.168385l-16.42667,32.810998l-20.05333,-90.727384a37.33333,43.499425 0 0 0 -41.38667,-32.313858a35.84,41.759452 0 0 0 -28.37333,51.950751l21.33333,94.207331l-28.58666,-19.139753a37.12,43.250861 0 0 0 -45.86667,7.705621a36.48,42.505156 0 0 0 8.96,64.876291l92.16,62.142038l17.49333,76.061859a24.32,28.336771 0 0 1 -30.08,35.048111l-67.41333,-20.879726l-52.05333,-104.150065a36.26667,42.256592 0 1 0 -64,40.765183l16.42666,32.810998l-79.36,-24.856813a36.05333,42.008016 0 0 0 -45.01333,34.053831a36.90667,43.002297 0 0 0 27.30667,48.222228l79.57333,24.856813l-27.94667,18.642612a37.76,43.996565 0 0 0 -14.93333,57.419246a36.48,42.505156 0 0 0 32,22.619711a35.84,41.759452 0 0 0 18.13333,-5.468507l91.94667,-61.893473l65.28,20.382597a24.74667,28.833911 0 0 1 11.09333,48.470792l-49.28,57.419246l-103.46666,0a37.33333,43.499425 0 0 0 -37.54667,37.782353a36.48,42.505156 0 0 0 35.84,46.482255l32.42667,0l-56.53334,66.119124a37.33333,43.499425 0 0 0 0,62.639178a36.69333,42.753721 0 0 0 24.32,10.937003a35.62667,41.510888 0 0 0 25.38667,-12.428412l59.73333,-69.350518l0,37.533801a37.33333,43.499425 0 0 0 32.42667,43.747989a36.48,42.505156 0 0 0 39.89333,-42.008016l0,-124.284087l48.21334,-56.176402a24.96,29.082475 0 0 1 41.6,12.925541l17.92,78.298972l-52.05334,105.144334a37.12,43.250861 0 0 0 9.38667,56.673542a35.84,41.759452 0 0 0 21.33333,8.202749a36.48,42.505156 0 0 0 31.36,-21.12829l16.42667,-32.810998l21.33333,92.715922a36.05333,42.008016 0 1 0 68.90667,-23.862544l-21.33333,-92.467358l28.58666,19.139753a37.12,43.250861 0 0 0 45.86667,-7.705609a36.26667,42.256592 0 0 0 -8.53333,-64.379163l-91.94667,-61.893473l-17.70667,-76.310423a24.32,28.336771 0 0 1 30.08,-35.048111l67.41334,20.879726l52.48,105.890039a36.05333,42.008016 0 0 0 52.48,12.676976a37.12,43.250861 0 0 0 9.38666,-56.424977l-16.85333,-31.568153l79.57333,24.856813a34.34667,40.019479 0 0 0 9.38667,1.491409a36.90667,43.002297 0 0 0 36.05333,-37.782353a35.84,41.759452 0 0 0 -27.09333,-46.233679l0.85333,-0.248576zm-312.10666,-67.859109a42.66667,49.713637 0 1 1 -42.66667,-49.713625a42.66667,49.713637 0 0 1 42.66667,49.713625z"/>
 </g>
</svg>