<svg width="1024" height="1024" xmlns="http://www.w3.org/2000/svg" class="icon">

 <g>
  <title>background</title>
  <rect fill="none" id="canvas_background" height="402" width="582" y="-1" x="-1"/>
 </g>
 <g>
  <title>Layer 1</title>
  <path stroke="null" id="svg_1" fill="#73DCE6" d="m790.44987,408.16263l-62.084694,0l0,-122.066355c0.620841,-132.219312 -96.645182,-220.596273 -216.261697,-220.596273s-217.089487,89.53071 -217.089487,221.750022l0,120.912606l-62.084702,0a53.392838,59.533304 0 0 0 -52.978939,59.302554l0,431.731838a53.392838,59.533304 0 0 0 53.599788,59.302554l556.899731,0a53.392838,59.533304 0 0 0 53.599788,-59.302554l0,-431.731838a53.392838,59.533304 0 0 0 -53.599788,-59.302554zm-248.338784,286.359813l0,94.376438a7.036267,7.845476 0 0 1 -7.036267,7.845476l-46.149629,0a7.036267,7.845476 0 0 1 -7.03626,-7.845476l0,-94.376438a66.016727,73.609007 0 0 1 -36.629976,-65.30204a66.844525,74.532007 0 0 1 133.4821,0a65.602828,73.147508 0 0 1 -36.629968,65.30204zm103.474492,-284.744573l-267.171149,0l0,-131.757812c0,-69.224778 60.015207,-126.219834 133.689049,-126.219834s133.689049,56.764315 133.689049,126.219834l-0.20695,131.757812z"/>
 </g>
</svg>