<?xml version="1.0" standalone="no"?><!DOCTYPE svg PUBLIC "-//W3C//DTD SVG 1.1//EN" "http://www.w3.org/Graphics/SVG/1.1/DTD/svg11.dtd"><svg t="1739099026790" class="icon" viewBox="0 0 1088 1024" version="1.1" xmlns="http://www.w3.org/2000/svg" p-id="16593" xmlns:xlink="http://www.w3.org/1999/xlink" width="212.5" height="200"><path d="M1045.12 146.752L1088 112l-52.48 160.256-142.848-89.792 57.792-1.344c-42.176-192.448-390.976-106.048-390.976-106.048 316.8-171.136 445.12-6.912 485.696 71.68z m-64.448 344.448c36.096 0.128 65.28 29.312 65.344 65.344l-133.76 412.032c-8.768 27.072-33.92 45.376-62.4 45.376H65.472A65.408 65.408 0 0 1 0 948.672V179.072a65.408 65.408 0 0 1 65.344-65.28h327.04a65.408 65.408 0 0 1 65.28 65.28A65.28 65.28 0 0 0 522.88 244.48h326.912A65.472 65.472 0 0 1 915.2 309.888v97.6h-0.192l0.064 0.384a32.64 32.64 0 0 1-65.28 0.32V309.888H523.008A130.56 130.56 0 0 1 392.384 179.2H65.28v568.192l68.48-210.816c8.704-27.008 33.92-45.376 62.272-45.376h784.576z" fill="#2c2c2c" p-id="16594"></path></svg>