<?xml version="1.0" standalone="no"?><!DOCTYPE svg PUBLIC "-//W3C//DTD SVG 1.1//EN" "http://www.w3.org/Graphics/SVG/1.1/DTD/svg11.dtd"><svg t="1739105249960" class="icon" viewBox="0 0 1024 1024" version="1.1" xmlns="http://www.w3.org/2000/svg" p-id="34248" xmlns:xlink="http://www.w3.org/1999/xlink" width="200" height="200"><path d="M749.761566 137.164486L706.438736 93.841656a52.574824 52.574824 0 0 0-74.162811 0L520.517709 205.599872l80.330807 80.477664zM600.407945 370.079769L162.480218 808.448067a25.993698 25.993698 0 0 1-37.007977 0l-4.993139-4.99314a26.434269 26.434269 0 0 1 0-37.154834l438.515154-438.368298-79.15595-80.037093L66.141993 663.3533a60.945676 60.945676 0 0 0-16.154276 46.406828v207.655871L13.126597 950.899406a39.063976 39.063976 0 0 0-2.937141 55.218251l7.48971 7.195996a39.504547 39.504547 0 0 0 55.805679-1.762285l33.777122-36.861119h207.362156a61.386247 61.386247 0 0 0 46.406828-16.154276l415.164884-412.521457zM1000.887123 60.651962l-37.742262-37.595405a78.568522 78.568522 0 0 0-111.170788 0l-63.442246 63.442246L937.444877 234.971282l63.442246-63.589103a78.862236 78.862236 0 0 0 0-110.730217zM922.465458 399.451179l7.636567-7.489709a52.721681 52.721681 0 0 0 0-74.309668l-138.339343-138.339343-148.766192 148.91305 175.347319 176.228462 44.057115-44.791401 44.057115 44.791401-209.271297 209.858726a39.504547 39.504547 0 0 0 0 55.658822l3.96514 3.965141a39.210833 39.210833 0 0 0 55.658822 0l223.663289-223.810146a65.791959 65.791959 0 0 0 0-92.6668z" fill="#3D97FC" p-id="34249"></path></svg>