<?xml version="1.0" standalone="no"?><!DOCTYPE svg PUBLIC "-//W3C//DTD SVG 1.1//EN" "http://www.w3.org/Graphics/SVG/1.1/DTD/svg11.dtd"><svg t="1739107310803" class="icon" viewBox="0 0 1024 1024" version="1.1" xmlns="http://www.w3.org/2000/svg" p-id="74637" xmlns:xlink="http://www.w3.org/1999/xlink" width="200" height="200"><path d="M512 644.608v308.309333l-384-258.773333V384z" p-id="74638" fill="#1296db"></path><path d="M85.333333 725.973333V297.984L512 0l426.666667 297.984v427.989333L512 1024z m451.029334 213.333334l353.621333-247.210667v-0.512l-210.773333-145.066667-144.682667 99.669334zM133.973333 692.394667l353.365334 246.741333v-294.4l-142.592-98.133333-210.773334 145.066666z m756.010667-67.797334V401.237333l-162.133333 111.658667z m-756.010667 0l162.133334-111.701333-162.133334-111.658667z m378.026667-29.866666l118.613333-81.706667L512 431.317333l-118.613333 81.706667z m-167.253333-115.2l142.592-98.133334V85.504L133.973333 332.245333v2.261334z m334.506666 0l210.773334-145.066667v-2.218667l-355.370667-248.149333 1.834667 297.173333zM92.330667 346.069333L113.92 295.68z" p-id="74639" fill="#3D97FC"></path></svg>